VERSION .7
FIELDS x y z
SIZE 4 4 4
TYPE F F F
COUNT 1 1 1
WIDTH 1024
HEIGHT 1
VIEWPOINT 0 0 0 1 0 0 0
POINTS 1024
DATA ascii
-0.210849 -0.095397 -0.649436
-0.563958 -0.180134 0.431316
-0.260131 -0.040542 -0.456526
-0.598261 -0.083332 0.379773
-0.390126 0.139365 -0.497635
-0.331731 0.435584 0.153121
-0.111364 -0.165891 -0.677545
-0.360989 0.168661 0.499544
-0.379754 -0.082055 0.612877
-0.386602 0.135960 -0.357157
-0.450200 -0.144878 0.478019
-0.472433 0.042726 0.317616
-0.264400 -0.208554 -0.365847
-0.447640 0.173879 -0.453018
-0.472332 0.019909 0.307321
-0.367448 0.207664 0.334484
-0.515310 0.209203 -0.574913
-0.533853 0.146326 -0.539671
-0.462560 0.215213 -0.524926
-0.358734 0.211317 0.527177
-0.500587 -0.034848 0.082721
-0.314093 0.131087 0.446410
-0.479716 0.015060 0.017596
-0.337408 -0.106480 -0.048096
-0.530749 0.082211 -0.599105
-0.097926 -0.159200 -0.639062
-0.384693 -0.100174 0.000125
-0.494769 -0.059808 -0.061778
-0.436223 -0.267187 0.106509
-0.475952 0.164945 -0.002461
-0.161894 0.321914 0.013781
-0.429564 -0.018636 0.447969
-0.510144 -0.233272 0.088936
-0.371025 0.171261 -0.282803
-0.320164 0.133111 0.574981
-0.226237 0.218303 -0.047055
-0.490646 0.005381 0.491019
-0.226001 -0.196185 -0.737537
-0.215742 0.307347 0.068284
-0.276506 -0.066533 0.705385
-0.450504 -0.181705 0.010841
-0.245853 -0.202015 -0.565982
-0.375922 0.096702 -0.192640
-0.410740 -0.013561 0.492483
-0.527428 -0.221915 0.347668
-0.217313 -0.133861 -0.287993
-0.548469 -0.291523 0.070277
-0.424195 0.160899 -0.774659
-0.293432 0.068470 -0.333547
-0.585436 0.092753 0.174911
-0.264969 0.283366 0.218268
-0.277649 -0.146841 -0.681793
-0.229057 0.291517 0.043694
-0.579090 -0.343606 0.194764
-0.245047 -0.109801 -0.519737
-0.490772 0.215665 -0.860221
-0.659471 0.139785 -0.655231
-0.493957 -0.189299 0.067607
-0.355629 0.026287 0.552014
-0.217770 0.291727 0.149404
-0.511076 0.057960 -0.497224
-0.337754 0.140149 -0.367277
-0.396980 0.029004 0.360559
-0.382086 0.202622 -0.428223
-0.606309 -0.030988 0.273006
-0.516279 -0.173918 0.054422
-0.681376 -0.248199 0.248606
-0.250037 0.180203 0.116791
-0.408900 0.183061 -0.736342
-0.517838 -0.244792 0.122484
-0.479361 0.038451 0.092922
-0.284161 -0.088791 -0.410028
-0.278621 0.186590 0.057797
-0.185858 -0.187019 -0.548334
-0.477978 0.250308 -0.417626
-0.534876 -0.022303 0.063804
-0.171495 0.287483 0.090004
-0.319877 0.307507 0.187277
-0.391284 0.287605 0.209761
-0.277355 0.266013 0.058890
-0.272206 0.288414 0.060773
-0.153908 -0.087873 -0.666102
-0.314090 -0.048659 0.557807
-0.328615 -0.039834 0.505393
-0.527497 0.246717 -0.492633
-0.533983 0.154082 -0.025410
-0.255464 -0.131313 -0.356354
-0.410274 -0.087596 0.618264
-0.409088 0.168864 -0.348695
-0.362844 0.192940 -0.347271
-0.514587 0.048907 0.216934
-0.389612 0.322722 0.231947
-0.384316 0.051789 0.509755
-0.547545 0.236031 -0.616127
-0.622473 0.067543 -0.626192
-0.324903 -0.073541 -0.128042
-0.257849 -0.047493 0.530435
-0.427518 0.001688 0.604209
-0.366682 -0.023381 0.601943
-0.336204 0.114629 0.558698
-0.250484 -0.201326 -0.172035
-0.399482 0.088214 -0.024156
-0.616902 -0.228756 0.153824
-0.553995 0.008206 0.152719
-0.389862 0.124231 -0.262937
-0.495838 -0.122358 0.656941
-0.234453 -0.159848 -0.176334
-0.316400 -0.091732 0.564989
-0.226121 -0.136761 -0.243293
-0.519442 -0.246865 0.045833
-0.349426 -0.071365 0.631449
-0.473040 0.193492 -0.096775
-0.506524 0.132040 -0.781251
-0.478889 0.004759 0.409220
-0.482845 -0.014247 0.055170
-0.332366 -0.004632 0.571426
-0.672697 -0.210065 0.350579
-0.358014 -0.128641 0.545857
-0.378748 0.116371 0.570460
-0.649863 -0.230704 0.165324
-0.540620 0.265316 -0.466296
-0.422069 -0.132537 0.569979
-0.245140 -0.102297 -0.317157
-0.418434 0.132037 -0.723556
-0.483822 0.100461 0.294914
-0.199279 -0.152856 -0.217884
-0.224464 -0.037068 -0.602119
0.045191 -0.243091 -0.645627
-0.550468 0.138287 -0.454577
-0.419240 0.094234 -0.777378
-0.387525 0.181591 -0.445781
-0.461730 -0.092693 0.596633
-0.631717 -0.301858 0.240964
-0.407248 0.144301 -0.243176
-0.188775 -0.064011 -0.653800
-0.308480 0.146914 0.460198
-0.453738 0.095970 -0.689789
-0.505999 0.057976 0.089694
-0.312511 0.129232 0.329477
-0.209982 -0.059588 -0.228074
-0.472286 0.062167 -0.056813
-0.503251 0.138861 -0.689456
-0.732757 -0.273791 0.328231
-0.496776 -0.111580 0.569021
-0.363073 -0.101147 0.760802
-0.319144 0.313252 0.206227
-0.485798 -0.186440 0.371131
-0.271522 0.347926 0.121501
-0.642613 0.201302 -0.661626
-0.522619 0.191490 -0.717172
-0.225368 0.213967 0.032674
-0.266066 -0.157982 -0.231122
-0.215846 -0.066723 -0.148803
-0.321349 0.049396 0.676009
-0.330254 -0.070127 -0.058604
-0.153361 0.279090 0.090559
-0.540137 -0.059562 0.028459
-0.338815 0.014323 -0.351118
-0.533395 -0.167556 0.398369
-0.553420 -0.352181 0.012824
-0.471911 0.091933 0.169216
-0.350536 0.126002 0.612069
-0.453013 0.125950 -0.674825
-0.368985 -0.045982 0.552382
-0.555385 0.240701 -0.464930
-0.240342 -0.067315 -0.091533
-0.246528 0.183335 0.520236
-0.120839 0.329578 0.025335
-0.338252 -0.055291 0.515654
-0.452102 0.181426 -0.372995
-0.373075 0.265576 0.139160
-0.422686 0.013428 0.447214
-0.331733 0.252440 0.141716
-0.590290 -0.191188 0.179159
-0.535990 -0.276230 0.096061
-0.351208 0.208227 0.324807
-0.611183 0.155946 -0.581882
-0.239007 -0.139642 -0.253318
-0.440265 -0.094644 0.015564
-0.221239 -0.018131 0.738381
-0.476416 0.079314 0.143284
-0.374878 -0.146648 0.046057
-0.592970 -0.221117 0.113529
-0.603249 -0.201640 0.485101
-0.442018 0.150409 -0.773040
-0.507139 0.110547 0.255808
-0.504238 -0.337025 0.019564
-0.197811 -0.138345 -0.279032
-0.197971 -0.185423 -0.699699
-0.372799 0.220070 -0.279309
-0.549783 -0.205146 0.408425
-0.476590 -0.315481 0.100722
-0.440108 0.227203 0.077756
-0.584303 -0.198691 0.336214
-0.337869 0.280489 0.227283
-0.400393 0.144679 -0.365083
-0.159255 -0.161327 -0.682765
-0.545966 -0.296540 0.324691
-0.418305 0.057817 0.527865
-0.234706 -0.080598 -0.209376
-0.486947 0.067566 0.156338
-0.296439 -0.117798 -0.513325
-0.406584 -0.035348 0.638717
-0.191720 -0.064064 -0.658484
-0.451136 -0.186200 0.251906
-0.496579 -0.049961 -0.008459
-0.440038 0.150159 -0.191249
-0.338678 0.027059 0.643180
-0.387395 0.073946 -0.172306
-0.195841 -0.152102 -0.256878
-0.541680 0.087163 0.379708
-0.525190 -0.320347 0.106965
-0.141799 -0.026155 -0.657178
-0.418652 0.202161 0.596600
-0.295141 0.246808 0.242100
-0.512659 0.212383 -0.592492
-0.511049 0.203821 -0.504224
-0.417881 0.138500 0.433784
-0.407851 0.018744 0.511479
-0.530221 0.072929 -0.760702
-0.359953 0.081170 -0.381996
-0.475174 0.179209 -0.545334
-0.280640 0.182734 0.342267
-0.412987 0.140396 0.553421
-0.447715 -0.200063 0.559505
-0.539452 0.217811 -0.592080
-0.138466 -0.139572 -0.386990
-0.275235 -0.142860 -0.525964
-0.605210 -0.267734 0.128574
-0.532175 0.116751 -0.033072
-0.447041 -0.093971 0.329246
-0.330082 -0.063792 -0.061623
-0.209841 -0.116128 -0.244587
-0.433455 -0.015756 0.575784
-0.432745 0.154623 -0.711158
-0.227383 0.351833 0.075235
-0.328793 0.100969 0.550041
-0.096338 -0.243631 -0.621193
-0.414603 -0.067651 0.589155
-0.276561 0.175533 0.310031
-0.455627 0.153898 -0.514558
-0.258175 0.183947 0.079092
-0.362549 0.126411 0.360357
-0.329594 0.123740 0.524385
-0.494500 0.167984 0.169397
-0.369008 0.275010 0.138363
-0.360039 -0.078540 -0.159724
-0.196945 0.134672 0.167251
-0.118357 0.285741 -0.083869
-0.562740 0.005474 0.102611
-0.343440 0.209627 -0.057771
-0.310356 -0.107932 -0.038375
-0.025985 -0.273316 -0.655060
-0.328393 0.266082 0.165985
-0.350833 -0.149381 -0.676756
-0.346522 0.263722 0.456104
-0.410161 0.128456 -0.405782
-0.463089 -0.124331 0.419060
-0.536831 0.145381 -0.435170
-0.546408 0.027969 0.203958
-0.294956 -0.099293 -0.391687
-0.367766 0.257027 0.340035
-0.306388 0.170376 -0.271186
-0.553334 0.183368 -0.678212
-0.495230 0.271959 -0.243548
-0.391557 0.084644 0.521903
-0.018322 -0.154402 -0.719235
-0.287395 0.096879 0.482895
-0.390579 0.302577 0.442057
-0.344897 0.148373 -0.766349
-0.245788 -0.093785 -0.192432
-0.480160 -0.262687 0.090461
-0.291862 -0.171368 -0.521005
-0.608864 -0.271213 0.309319
-0.464415 0.097222 0.279384
-0.700523 0.138006 -0.512323
-0.453072 0.224919 -0.021864
-0.598876 0.192787 -0.544172
-0.676027 0.087623 -0.585425
-0.186960 0.244010 0.011269
-0.235595 -0.128981 -0.208912
-0.502913 0.132776 -0.766104
-0.472202 -0.143088 -0.059184
-0.303203 0.284956 -0.283727
-0.403469 0.125968 -0.308001
-0.467767 0.169515 -0.061336
-0.449525 0.296866 0.179663
-0.735665 -0.186972 0.266536
-0.494644 0.009140 0.464550
-0.568186 0.095301 0.220721
-0.495415 0.065279 0.342654
-0.290605 -0.017430 0.686081
-0.493703 0.136937 -0.824134
-0.442163 0.142832 -0.243201
-0.600754 0.145874 -0.633426
-0.551365 0.158097 -0.640996
-0.307124 -0.072179 0.669892
-0.244760 -0.147632 -0.594398
-0.607296 0.137303 -0.567967
-0.630386 -0.193815 0.026990
-0.656277 -0.202010 0.275863
-0.275191 -0.120300 -0.368894
-0.316814 0.027801 0.676577
-0.330713 0.016456 0.560772
-0.434821 0.259552 0.266947
-0.529512 0.021473 0.274250
-0.438447 -0.340559 0.084272
-0.327513 0.310901 0.271907
-0.169467 -0.137007 -0.693790
-0.471544 0.026658 -0.777756
-0.511933 -0.227203 0.343171
-0.501854 -0.252935 0.181966
-0.282284 -0.128487 -0.349515
-0.298778 0.133692 -0.353503
-0.330381 -0.073743 -0.107983
-0.393016 0.278044 0.318237
-0.354323 0.228097 0.232146
-0.281212 -0.195490 -0.659343
-0.499972 -0.267524 0.097957
-0.285261 0.201558 0.037664
-0.214631 -0.150017 -0.324587
-0.426914 0.180596 -0.511122
-0.528329 -0.043528 0.566741
-0.569598 0.196573 -0.533486
-0.141983 -0.150507 -0.355735
-0.354932 0.191529 0.191779
-0.631125 0.144857 -0.751064
-0.327284 0.231351 0.249676
-0.434137 0.075125 0.354173
-0.541679 0.233538 -0.706608
-0.186988 0.285544 -0.010328
-0.381340 0.108084 0.545452
-0.251274 -0.124868 -0.278608
-0.445849 0.198982 -0.652615
-0.233311 -0.123409 -0.509479
-0.557078 -0.175861 0.524390
-0.343818 -0.077006 0.624492
-0.507815 -0.049300 0.021771
-0.363188 0.200838 0.381872
-0.452894 -0.069554 -0.005882
-0.335662 -0.166705 -0.018395
-0.562542 -0.215141 0.299281
-0.421710 -0.201195 0.494359
-0.466331 0.041496 0.221501
-0.218586 -0.166899 -0.547633
-0.124110 0.137925 0.055840
-0.278692 0.195459 0.520946
-0.561866 0.137082 -0.639241
-0.189271 0.227303 0.054991
-0.303074 0.179056 -0.249377
-0.259589 0.009998 0.463022
-0.482223 0.014671 0.351928
-0.360843 0.322546 0.077808
-0.262015 -0.153385 -0.593025
-0.265389 -0.110561 -0.214367
-0.201782 -0.203380 -0.301092
-0.492512 0.186768 -0.619699
-0.188347 0.299900 0.042523
-0.201363 -0.080857 -0.508101
-0.316106 0.218944 0.415182
-0.594476 0.082030 -0.689727
-0.212106 -0.141435 -0.287053
-0.420977 -0.135744 -0.110424
-0.193577 0.217362 0.088559
-0.609447 0.038408 0.117410
-0.206345 0.204473 0.063569
-0.203719 -0.038472 -0.570389
-0.471844 0.102206 -0.728777
-0.605691 0.137160 -0.752403
-0.306978 0.219044 0.409222
-0.669658 -0.272952 -0.010487
-0.403483 -0.142675 0.566717
-0.381835 0.249664 0.419688
-0.480600 0.131012 0.048639
-0.202531 0.243751 0.201151
-0.529791 0.174316 0.068680
-0.249808 -0.079020 -0.483013
-0.184866 -0.142367 -0.339776
-0.274434 -0.088865 -0.518492
-0.302143 0.281734 0.549169
-0.578356 0.145691 -0.700547
-0.458001 -0.063510 0.469549
-0.380609 0.284119 0.244681
-0.225998 -0.138436 -0.318372
-0.331948 -0.114360 -0.418082
-0.315871 0.224497 -0.392850
-0.301749 -0.161970 -0.152705
-0.425827 -0.053873 0.617143
-0.362698 0.075329 -0.271954
-0.602048 -0.232318 0.256485
-0.534438 -0.285017 0.014415
-0.189538 -0.106515 -0.324504
-0.306738 -0.173992 -0.612514
-0.351733 0.135799 0.551666
-0.530511 -0.257656 0.144503
-0.351159 0.183269 -0.494977
-0.552518 0.104608 0.107999
-0.363931 -0.044193 -0.129389
-0.353945 0.177898 -0.427882
-0.421505 0.084224 0.001829
-0.255589 -0.070213 -0.567426
-0.463936 -0.058722 0.542995
-0.126374 -0.254524 -0.776546
-0.492822 -0.156138 0.479927
-0.286580 -0.102831 -0.263216
-0.470787 0.134874 -0.492912
-0.388353 0.178861 0.374259
-0.446844 0.034499 0.392096
-0.629210 -0.185985 0.397583
-0.242598 0.030214 0.694181
-0.265268 -0.149908 -0.564091
-0.392456 0.233300 -0.288507
-0.136599 -0.034987 -0.684689
-0.386198 0.023891 0.663639
-0.522666 0.003204 0.275909
-0.341506 0.271062 0.233731
-0.323935 0.215010 0.281209
-0.190411 -0.112351 -0.429944
-0.526055 -0.224044 0.202806
-0.515867 -0.210763 0.067765
-0.618157 -0.171204 0.213097
-0.221508 -0.181054 -0.561622
-0.328336 0.251810 0.487249
-0.499831 0.016923 0.457447
-0.146099 -0.117045 -0.738956
-0.196713 -0.151753 -0.646443
-0.620490 0.293376 -0.698324
-0.410532 0.210337 0.512015
-0.451874 -0.107404 0.036636
-0.210600 -0.206135 -0.502933
-0.237150 -0.203104 -0.660961
-0.402330 -0.066264 0.029907
-0.419459 -0.038148 0.487925
-0.269183 -0.009044 -0.242496
-0.547764 0.039662 0.406749
-0.374885 0.211315 -0.113922
-0.462234 0.265220 -0.481097
-0.283533 0.132649 -0.215010
-0.536085 -0.289828 0.432070
-0.258388 -0.079670 -0.349352
-0.585525 -0.255178 0.214722
-0.456747 -0.018455 0.460021
-0.343917 0.201707 -0.175037
-0.539581 0.174523 -0.656599
-0.477159 0.057962 0.304191
-0.303983 0.105498 0.611617
-0.554381 -0.193885 0.297244
-0.361572 0.248224 -0.163707
-0.389302 0.271158 0.308677
-0.614911 -0.287723 0.212357
-0.415459 -0.159892 -0.105089
-0.241748 -0.107508 -0.176308
-0.422004 -0.037459 -0.092878
-0.395273 -0.040628 0.458319
-0.541620 0.095390 -0.542975
-0.534550 0.116568 -0.550260
-0.261989 0.126528 0.078057
-0.286109 -0.047633 0.546049
-0.474347 -0.071533 0.095602
-0.173429 -0.159111 -0.661697
-0.180739 -0.198055 -0.250604
-0.463672 -0.078751 0.610640
-0.498547 0.191102 -0.535939
-0.431677 0.088340 -0.190934
-0.472103 0.248314 -0.481015
-0.250468 0.268053 0.033178
-0.603205 -0.244987 0.264919
-0.170153 -0.102641 -0.644735
-0.214501 -0.083070 -0.377168
-0.503873 -0.203024 0.474284
-0.353717 -0.006824 0.565878
-0.483155 -0.032573 0.067154
-0.274732 0.247127 0.177923
-0.329064 0.187349 -0.014625
-0.367380 0.043318 0.544397
-0.547831 0.080322 -0.771115
-0.396299 0.197680 -0.354703
-0.470217 -0.111769 0.618729
-0.377041 -0.129807 -0.098417
-0.129720 -0.131384 -0.616197
-0.687575 -0.220600 0.367827
-0.029335 -0.147501 -0.627532
-0.285438 -0.045373 0.703548
-0.565339 -0.256068 0.081916
-0.437714 -0.065608 -0.137420
-0.135702 -0.132719 -0.392548
-0.535321 0.195383 -0.514349
-0.489544 -0.095483 0.500228
-0.255160 -0.071979 -0.229938
-0.494048 0.194607 0.254654
-0.582884 -0.222117 0.052034
-0.449867 -0.107093 -0.039031
-0.394550 0.155712 0.050205
-0.426405 0.141298 -0.009999
-0.471920 0.003980 0.169204
-0.199443 0.289199 0.036654
-0.517537 -0.160476 0.420397
-0.453814 0.106267 -0.197403
-0.527005 0.133200 -0.664918
-0.486026 -0.279118 0.103087
-0.404707 0.213191 -0.328410
-0.485895 0.280387 -0.349078
-0.588696 0.168781 -0.599967
-0.347918 -0.068364 0.510987
-0.103054 -0.244256 -0.640586
-0.558009 0.182399 -0.731753
-0.354467 0.197204 0.217572
-0.395273 0.207790 -0.458958
-0.579310 0.129615 -0.764717
-0.607628 -0.245362 0.234957
-0.286747 -0.110339 -0.430919
-0.364647 -0.123346 -0.115950
-0.538730 -0.080406 0.512348
-0.082745 -0.246941 -0.663160
-0.599623 0.146632 -0.584224
-0.430834 0.089812 0.443137
-0.445334 -0.053957 0.587919
-0.281913 0.145379 0.532525
-0.312644 0.181763 0.297685
-0.239096 -0.217430 -0.337616
-0.294126 0.225547 0.368189
-0.167173 -0.108145 -0.414676
-0.418520 -0.096559 -0.106651
-0.544343 -0.291007 -0.006646
-0.586278 0.170684 -0.621645
-0.576200 0.111902 -0.484845
-0.412876 0.095933 -0.167912
-0.321994 -0.068835 0.614343
-0.286944 0.239962 0.494640
-0.509083 0.041707 0.181549
-0.211517 -0.098326 -0.308212
-0.408408 0.158488 -0.380132
-0.483753 0.138877 0.069039
-0.363485 0.149291 0.474689
-0.397949 0.118426 -0.292071
-0.595240 -0.269041 0.116318
-0.333639 0.276622 -0.330750
-0.405268 -0.012102 0.580539
-0.338915 0.194010 -0.257596
-0.438805 -0.008208 0.022546
-0.187508 -0.212353 -0.422692
-0.479751 -0.165126 0.538685
-0.210653 -0.067582 -0.589611
-0.542300 -0.310803 0.326531
-0.242642 -0.029077 -0.530305
-0.282267 -0.099168 -0.107943
-0.572664 0.152392 -0.496153
-0.318880 0.236641 0.163386
-0.388806 0.168925 0.088984
-0.202374 -0.140966 -0.432139
-0.322082 -0.105279 0.655970
-0.496405 0.074238 -0.375703
-0.234934 -0.104839 -0.229010
-0.300302 0.052484 0.551800
-0.267340 -0.048606 -0.289295
-0.512884 0.235401 -0.388272
-0.431374 -0.016411 0.391250
-0.408684 -0.037807 -0.004363
-0.169389 -0.089570 -0.616029
-0.428515 0.132221 -0.226781
-0.351988 0.205999 -0.409188
-0.519412 0.042622 0.133554
-0.434644 -0.224188 -0.097317
-0.591264 -0.159719 0.390030
-0.456038 0.158709 -0.712421
-0.172740 0.272673 0.056609
-0.389269 0.239471 -0.334573
-0.283600 -0.108983 -0.238519
-0.070755 -0.192193 -0.706435
-0.268587 0.140610 0.099074
-0.436177 0.205744 -0.452783
-0.423525 0.291719 -0.365272
-0.283446 0.162172 0.071435
-0.311514 0.234300 0.321797
-0.257509 -0.137948 -0.400241
-0.401586 0.189542 0.441656
-0.591845 -0.205106 0.195454
-0.295356 0.280260 0.078329
-0.248223 -0.118372 -0.693040
-0.385457 0.156940 0.103722
-0.274539 -0.143339 -0.654038
-0.313258 0.099789 0.638842
-0.184280 0.194954 0.088772
-0.344152 -0.062945 0.571968
-0.585947 0.155351 -0.547967
-0.379440 0.117370 -0.227426
-0.319714 -0.216748 -0.247445
-0.259902 0.340613 0.131492
-0.413183 -0.113431 0.484429
-0.401221 -0.084478 -0.132144
-0.211593 -0.159621 -0.655055
-0.189848 -0.082263 -0.626522
-0.410966 -0.028916 0.322050
-0.277194 0.011551 0.612646
-0.581089 -0.210332 0.355141
-0.418964 -0.073038 0.574974
-0.573187 -0.141845 0.283439
-0.278486 0.267700 0.112342
-0.158801 -0.202130 -0.321836
-0.251190 0.273493 0.187113
-0.473234 0.042794 0.330382
-0.352944 0.144714 0.356968
-0.304279 0.142691 0.647183
-0.299804 -0.206052 -0.350405
-0.405799 0.214507 -0.498186
-0.442872 0.133872 -0.311750
-0.237334 0.197886 0.046162
-0.426860 0.015389 -0.014359
-0.212685 -0.018860 -0.227973
-0.170582 -0.081720 -0.259274
-0.566886 -0.338936 0.104701
-0.480069 -0.408809 0.096581
-0.517988 0.183456 -0.568340
-0.423575 0.124184 -0.113125
-0.484941 0.189544 -0.548120
-0.182372 0.188397 0.123510
-0.519424 0.219508 -0.605448
-0.467057 0.062251 -0.125849
-0.414831 0.228254 -0.414939
-0.361561 0.102506 -0.262913
-0.599942 -0.246478 0.060944
-0.404261 0.050247 0.303938
-0.555840 0.214863 -0.652137
-0.549240 0.046399 0.218078
-0.421545 0.209331 -0.019589
-0.301588 -0.071291 -0.491926
-0.546710 -0.286851 0.181026
-0.320962 0.140047 -0.395785
-0.422934 0.032207 0.494723
-0.230996 0.163940 -0.013361
-0.518991 -0.101461 0.023036
-0.244625 -0.104511 -0.582062
-0.275326 0.208049 0.106271
-0.522590 0.124316 -0.704644
-0.337212 0.167960 -0.519393
-0.388839 0.227691 0.390037
-0.292379 -0.076308 -0.421467
-0.256243 -0.036686 -0.735505
-0.623675 0.143220 -0.735199
-0.393352 0.102431 -0.087833
-0.285206 -0.173648 -0.587178
-0.319664 -0.067275 0.684770
-0.468078 0.035112 0.361947
-0.515513 0.096517 0.104676
-0.273969 0.283450 0.335373
-0.526473 -0.110259 0.493905
-0.470647 -0.020827 0.379882
-0.551348 -0.138052 0.423671
-0.568660 -0.239955 0.437982
-0.313978 -0.134371 -0.517267
-0.395342 0.156457 -0.478537
-0.692794 -0.310304 0.090384
-0.591008 0.213892 -0.631260
-0.334049 0.197581 0.352705
-0.226211 -0.162965 -0.437870
-0.476008 -0.111358 0.585420
-0.211413 0.188983 0.058619
-0.476940 -0.144874 0.517814
-0.654524 -0.251905 0.335022
-0.435483 0.180050 -0.404579
-0.407403 0.067611 0.379021
-0.372010 0.296918 -0.378738
-0.501328 -0.171645 0.152194
-0.489709 -0.082520 0.508519
-0.422491 0.158729 -0.014620
-0.634441 0.098982 -0.617342
-0.332634 0.296535 0.221364
-0.178106 -0.235926 -0.458040
-0.236769 -0.108543 -0.215601
-0.251938 -0.144532 -0.491063
-0.349866 -0.095480 0.419487
-0.080764 -0.133565 -0.794656
-0.303965 -0.034630 -0.208913
0.002791 -0.108761 -0.630355
-0.514731 0.077685 0.339486
-0.398061 0.167467 -0.442129
-0.408311 -0.013927 0.557369
-0.328786 0.040656 0.588488
-0.304296 -0.101161 -0.548280
-0.302448 -0.166857 -0.243901
-0.464746 0.188742 0.108674
-0.337641 0.129338 0.528341
-0.548358 0.141413 -0.531979
-0.580424 0.137510 -0.730729
-0.365827 0.085462 -0.400133
-0.418615 0.140465 0.517235
-0.188943 -0.125220 -0.555558
-0.379038 0.064409 0.417723
-0.248520 -0.099239 -0.513813
-0.246692 0.278514 0.071397
-0.268570 -0.037120 0.662106
-0.309644 -0.072037 -0.163049
-0.591219 -0.183109 0.249433
-0.269200 0.220623 -0.009424
-0.208516 0.223822 0.087455
-0.361583 0.151962 0.535259
-0.265532 -0.151959 -0.520840
-0.433582 0.004247 -0.039451
-0.618978 0.069313 0.372745
-0.218693 0.209269 0.096804
-0.427161 0.183607 0.032517
-0.473196 0.107047 -0.441194
-0.429004 0.081247 -0.810001
-0.648122 -0.203174 0.245281
-0.616168 0.073385 -0.618587
-0.495241 0.153145 -0.495599
-0.355502 0.067678 0.517614
-0.369995 0.279305 0.243206
-0.484436 0.012567 0.372902
-0.519771 -0.180707 0.357408
-0.508879 0.069192 0.237388
-0.189566 -0.070457 -0.413441
-0.254164 0.279059 0.059029
-0.324332 0.279284 0.352237
-0.297525 0.284086 0.225962
-0.396742 -0.095459 0.032477
-0.326382 0.124868 0.602374
-0.549228 0.211330 -0.681185
-0.311586 -0.176464 -0.623175
-0.444856 -0.105380 0.120759
-0.456515 0.087728 -0.644448
-0.341746 0.062396 -0.301046
-0.219459 -0.149840 -0.646038
-0.537510 -0.175110 0.544359
-0.463883 -0.275380 0.419562
-0.558905 0.119465 0.348475
-0.153138 0.305766 0.024496
-0.506129 0.138405 -0.385482
-0.386853 0.086987 -0.226785
-0.367046 -0.009455 0.535419
-0.271634 -0.098897 -0.158436
-0.468109 0.199078 0.029074
-0.152226 -0.190557 -0.689544
-0.589482 -0.236996 0.372947
-0.317995 0.169256 -0.349092
-0.577530 0.007881 0.409569
-0.224094 0.226013 0.049280
-0.539620 -0.181730 0.367364
-0.341535 -0.085799 -0.671668
-0.565457 0.046946 -0.535360
-0.268134 0.234764 0.178872
-0.456808 0.211929 -0.450422
-0.524114 -0.194787 0.136448
-0.391614 0.228564 -0.403626
-0.229264 -0.174497 -0.773749
-0.416949 -0.216651 0.039672
-0.308682 0.300211 0.236555
-0.379190 0.290935 0.333502
-0.182733 -0.086732 -0.625173
-0.453905 0.148982 -0.775938
-0.314642 0.045100 -0.246370
-0.313223 0.153840 0.426481
0.012211 -0.192487 -0.695503
-0.318649 0.138496 -0.314537
-0.540306 0.059212 0.241482
-0.264731 -0.143871 -0.228537
-0.418550 0.150817 -0.320471
-0.601627 0.223032 -0.454939
-0.509195 0.059442 0.111844
-0.304049 -0.052092 -0.133812
-0.322624 0.146631 0.605602
-0.323875 0.091065 0.512122
-0.210268 -0.196683 -0.663931
-0.415460 -0.192156 0.503849
-0.594054 -0.175706 0.321911
-0.274677 -0.192833 -0.537332
-0.386838 0.264392 0.276930
-0.652168 0.185342 -0.617714
-0.657607 -0.261162 0.338181
-0.377913 -0.070543 0.023700
-0.475691 -0.178010 0.600105
-0.155179 -0.117760 -0.630185
-0.320213 0.218248 0.179359
-0.495483 -0.269198 0.061791
-0.542065 -0.204047 0.035583
-0.356612 0.009229 0.611110
-0.348103 0.123293 0.470018
-0.479209 -0.058590 0.073393
-0.203024 0.312517 0.135929
-0.328920 0.168518 0.477660
-0.330090 0.095553 -0.358442
-0.247948 -0.149904 -0.470372
-0.491130 0.161068 -0.774040
-0.372342 -0.072935 0.587634
-0.279762 -0.092221 -0.609192
-0.359661 0.032508 0.680320
-0.339978 -0.082977 -0.146317
-0.361248 0.275715 0.290620
-0.427607 0.030786 0.235374
-0.309973 0.183172 -0.352820
-0.314930 -0.064759 -0.066942
-0.232838 -0.088493 -0.137119
-0.559097 0.192946 -0.632297
-0.468020 0.024431 0.402895
-0.350037 0.069197 0.414735
-0.186595 0.301696 0.152380
-0.403302 0.067004 0.488010
-0.531964 0.202027 -0.806463
-0.366288 0.183578 -0.353608
-0.414042 -0.024959 0.598455
-0.320951 -0.143652 -0.449110
-0.511505 0.085253 0.255632
-0.579941 0.116947 0.340097
-0.277924 -0.119367 -0.234940
-0.271070 -0.102886 -0.077694
-0.525369 0.231932 -0.509050
-0.464242 -0.029358 0.369308
-0.037189 -0.211162 -0.714242
-0.671176 -0.215593 0.238471
-0.471803 0.147918 -0.771399
-0.412043 0.142420 -0.111018
-0.379471 -0.028667 0.413979
-0.412382 0.141630 -0.727382
-0.414911 0.215318 -0.135735
-0.422966 0.080306 -0.085797
-0.458451 -0.304879 -0.002609
-0.147999 -0.127747 -0.675329
-0.410668 -0.100408 0.481641
-0.567861 0.178120 -0.804094
-0.431730 0.117848 0.000059
-0.144909 -0.164522 -0.323701
-0.668682 0.185191 -0.697878
-0.492761 -0.034909 0.440339
-0.501135 -0.254339 0.118818
-0.405687 -0.137649 0.550584
-0.062376 -0.099674 -0.673338
-0.413698 0.023994 0.165231
-0.190975 -0.151212 -0.101312
-0.513326 0.243496 -0.079919
-0.538372 0.058823 0.222953
-0.331494 0.175549 -0.309836
-0.618847 -0.271432 0.282300
-0.296623 0.115152 0.534625
-0.539559 0.245427 -0.579181
-0.627509 -0.263243 0.233592
-0.182857 0.154006 0.017190
-0.364999 -0.072180 0.572149
-0.671058 -0.310234 0.082749
-0.308786 0.234010 0.174688
-0.434749 0.115397 0.277704
-0.562855 0.014438 0.246325
-0.454285 -0.005327 0.272249
-0.244604 -0.261710 -0.673629
-0.504197 0.175610 -0.644516
-0.389308 0.327713 0.143245
-0.401066 0.184891 0.040928
-0.309530 0.122522 0.103682
-0.385654 0.179733 0.660290
-0.194893 -0.115401 -0.273496
-0.222166 -0.166188 -0.477392
-0.414892 -0.035772 0.369668
-0.207753 0.335436 0.083114
-0.640143 -0.158562 0.245203
-0.457199 0.110046 -0.087830
-0.209388 -0.085798 -0.620077
-0.265829 0.281333 0.334581
-0.399494 0.089699 -0.720926
-0.271266 0.324986 0.082892
-0.362090 0.225183 0.203250
-0.394715 0.107552 -0.197113
-0.192858 -0.155366 -0.248495
-0.418981 0.122406 -0.883394
-0.301211 0.067405 0.575589
-0.188683 -0.091447 -0.538839
-0.168137 -0.151354 -0.410521
-0.367373 0.104440 -0.089674
-0.434568 0.119241 -0.490192
-0.372056 0.260030 0.265772
-0.272456 -0.166344 -0.213878
-0.493387 0.079856 0.376467
-0.429004 -0.127194 0.481358
-0.301880 -0.201935 -0.666963
-0.489490 0.094055 -0.499672
-0.648060 -0.242899 0.248762
-0.460516 -0.017783 0.271442
-0.188919 -0.086527 -0.742787
-0.340178 0.353119 0.190258
-0.321894 -0.131782 -0.743816
-0.270764 -0.132449 -0.469909
-0.642660 0.129286 -0.650015
-0.570524 0.241899 -0.461563
-0.505096 0.038136 0.359488
-0.440364 -0.109465 0.533308
-0.596307 0.161684 -0.567785
-0.473265 0.105257 -0.040194
-0.610265 -0.096060 0.401947
-0.465933 0.174456 -0.278429
-0.550407 -0.251157 0.182830
-0.223694 -0.195879 -0.363074
-0.435540 0.059660 -0.481230
-0.189856 -0.078795 -0.274319
-0.185071 -0.238207 -0.704299
-0.430105 -0.147476 0.488717
-0.457326 -0.292460 0.204498
-0.440252 0.034260 0.364925
-0.476104 0.000220 0.399588
-0.549888 -0.202985 0.273689
-0.679241 -0.226243 0.281103
-0.651425 -0.292167 0.068218
-0.237971 -0.142931 -0.624896
-0.240159 -0.033753 0.600983
-0.616290 0.132239 -0.656193
-0.488753 0.119853 -0.184943
-0.326703 0.233465 0.360365
-0.288636 0.282380 0.089645
-0.449161 0.184677 -0.424984
-0.384213 -0.120061 -0.022319
-0.322280 -0.125918 -0.154314
-0.245130 0.135151 0.000538
-0.615885 0.193637 -0.583878
-0.624411 0.144059 -0.605355
-0.269846 0.145245 0.432998
-0.338061 0.331459 0.218005
-0.546247 0.033567 0.121870
-0.385785 0.227599 -0.116380
-0.460798 0.261523 0.490700
-0.556228 -0.201318 0.433500
-0.580509 0.137538 -0.640960
-0.583963 -0.097345 0.435952
-0.640371 0.207137 -0.704185
-0.482405 -0.070093 0.226076
-0.184840 0.287673 -0.003102
-0.216007 0.164180 -0.005878
-0.460045 0.146522 -0.399758
-0.560960 -0.279260 0.079562
-0.262578 -0.173546 -0.607809
-0.119219 -0.133026 -0.665493
-0.344024 0.044632 0.562862
-0.467901 0.174464 0.035321
-0.528159 -0.007197 0.305651
-0.362153 -0.065190 0.526538
-0.506849 -0.066347 0.179384
-0.162499 -0.139656 -0.690746
-0.177588 -0.190394 -0.764895
-0.549676 0.198602 -0.467717
-0.328475 0.191987 0.001163
-0.489100 0.104267 0.112833
-0.444963 0.000277 0.530380
-0.421810 -0.022805 0.597783
-0.374709 0.065129 0.499482
-0.460089 0.194865 -0.539242
-0.103137 -0.282205 -0.679478
-0.264575 -0.055038 -0.193922
-0.347544 0.233863 0.229312
-0.427347 0.193002 -0.001273
-0.558273 0.147462 -0.523872
-0.375035 0.163614 -0.376309
-0.193430 -0.100296 -0.644312
-0.556573 -0.119259 0.416952
-0.569397 -0.176719 0.463010
-0.196938 0.192760 0.067817
-0.621217 -0.141051 0.175691
-0.569611 -0.271822 0.539524
-0.515293 -0.173757 0.487192
-0.578198 -0.219473 0.156897
-0.295911 0.207554 0.329088
-0.091189 -0.155042 -0.747415
-0.270120 0.130985 0.061151
-0.354686 0.174078 0.478336
-0.472764 0.034896 0.154129
-0.639165 -0.236290 0.278698
-0.294520 0.186574 0.460649
-0.163238 0.283709 0.125378
-0.381575 0.156403 -0.812346
-0.278486 -0.091921 -0.612129
-0.275612 -0.078769 -0.534017
-0.189193 -0.155349 -0.175192
-0.507915 0.005613 0.303259
-0.294144 -0.151747 -0.130645
-0.605634 -0.224934 0.312337
-0.248306 -0.162231 -0.335318
-0.266525 0.347499 0.185387
-0.125320 -0.160429 -0.600880
-0.498733 0.238941 -0.490099
-0.564420 0.171984 -0.633867
-0.334482 0.008873 0.623465
-0.404782 0.132910 -0.346490
-0.605047 -0.232667 0.232476
-0.441211 0.037649 0.366413
-0.377469 -0.055400 -0.192274
-0.346295 0.191288 0.306075
-0.229816 -0.105933 -0.315136
-0.343890 -0.129897 -0.109658
-0.193398 -0.064781 -0.389105
-0.334327 -0.003401 0.518721
-0.406360 0.125342 -0.246072
-0.181466 -0.143168 -0.327959
-0.487454 -0.155786 0.434164
-0.416688 0.149976 0.495344
-0.667901 0.204803 -0.620715
-0.456371 0.024466 0.623757
-0.242740 -0.143982 -0.638558
-0.426376 0.121150 -0.113356
-0.299560 0.247491 0.164687
-0.090417 -0.242187 -0.666722
-0.538032 0.080765 0.508979
-0.311507 0.214656 -0.202196
-0.492612 0.226188 -0.032637
-0.641797 -0.275452 0.018748
-0.201639 -0.002677 -0.165514
-0.664124 -0.324579 0.139488
-0.306395 -0.079390 -0.042336
-0.624191 -0.226034 0.368501
-0.354351 -0.115540 -0.639213
-0.117129 -0.202779 -0.715454
-0.237547 -0.184537 -0.694189
-0.460967 -0.125922 0.459933
-0.394171 0.112731 0.555314
-0.357012 0.006216 0.688613
-0.476534 0.183529 -0.406675
-0.354301 -0.164517 -0.005864
-0.399292 -0.120117 0.539846
-0.339817 0.297781 0.214349
-0.558074 -0.204966 0.294928
-0.383037 0.165809 -0.181022
-0.570287 -0.006236 0.270932
-0.487902 0.005505 0.389828
-0.520637 0.221968 -0.685111
-0.508621 -0.047583 0.364086
-0.173838 -0.146048 -0.597392
-0.449856 -0.093257 0.499938
-0.538881 -0.153064 0.486701
-0.256508 -0.089589 -0.673876
-0.254212 0.202994 0.002182
