VERSION .7
FIELDS x y z
SIZE 4 4 4
TYPE F F F
COUNT 1 1 1
WIDTH 1024
HEIGHT 1
VIEWPOINT 0 0 0 1 0 0 0
POINTS 1024
DATA ascii
-0.212786 -1.929224 -0.117891
-0.560228 -2.286804 -0.501911
-0.467298 -1.536110 -0.096189
-0.390360 -1.538005 -0.825578
-0.679188 -1.862031 0.231724
-0.406099 -1.611361 -0.342873
-0.271337 -1.899175 -0.077608
-0.442045 -1.672611 -0.449163
-0.289594 -1.907506 0.021330
-0.542060 -1.829009 0.004492
-0.563301 -1.736398 0.177326
-0.468248 -1.969336 0.148457
-0.430441 -2.231231 0.007053
-0.599909 -1.923623 0.176260
-0.361794 -2.073009 -0.158485
-0.606949 -1.925279 0.156608
-0.574566 -1.869443 0.186602
-0.477851 -1.704506 -0.403041
-0.653646 -2.219700 -0.163648
-0.450997 -1.600047 -0.337720
-0.490145 -1.865815 0.093071
-0.517925 -1.613863 -0.163451
-0.550075 -2.306132 -0.189286
-0.620276 -1.549471 -0.350685
-0.518592 -2.289188 -0.018521
-0.662077 -1.603940 -0.366369
-0.410030 -1.581904 -0.764131
-0.490990 -1.511040 -0.938933
-0.279463 -1.840525 0.063485
-0.436661 -2.208827 -0.129038
-0.593074 -1.637341 -0.036973
-0.479826 -2.026103 -0.223013
-0.430382 -1.783657 -0.240159
-0.448676 -1.780846 -0.248067
-0.507273 -1.553738 -0.144808
-0.417334 -1.720037 -0.408399
-0.446503 -1.483605 -0.977017
-0.545787 -1.874496 0.241044
-0.643367 -1.766808 0.203426
-0.431592 -1.753639 -0.473511
-0.521798 -1.769214 0.105819
-0.328345 -1.855542 0.065233
-0.387330 -1.700940 -0.291947
-0.497480 -1.681458 0.168251
-0.458058 -2.218375 -0.008640
-0.484332 -1.540223 -0.565859
-0.479510 -2.391764 -0.676076
-0.473968 -2.134794 0.097624
-0.635572 -2.282974 -0.297312
-0.448600 -2.204458 -0.503546
-0.389205 -1.704263 -0.335585
-0.474307 -1.635690 0.017360
-0.475067 -1.705509 -0.475376
-0.442326 -1.748392 -0.346479
-0.609763 -1.641976 0.020395
-0.522571 -2.136418 -0.229879
-0.596039 -1.647957 0.130756
-0.591714 -2.164497 0.210464
-0.618033 -1.955156 0.138211
-0.476222 -2.252209 -0.040014
-0.461623 -1.975660 0.126799
-0.489643 -2.285378 -0.133400
-0.446646 -2.331423 -0.149866
-0.551600 -1.544927 -0.887523
-0.501024 -1.606849 -0.506486
-0.546094 -1.560464 -0.129395
-0.439873 -2.303157 -0.669142
-0.574405 -2.221117 -0.383843
-0.402328 -1.637964 -0.357632
-0.507805 -1.714510 -0.486802
-0.283404 -1.854271 0.083799
-0.599766 -1.649156 -0.495733
-0.480217 -2.349289 -0.709980
-0.524829 -2.349988 -0.659973
-0.464541 -1.406243 -0.317477
-0.549654 -1.590411 -0.028324
-0.215886 -1.887549 -0.094947
-0.504567 -1.905494 0.218678
-0.575849 -1.458918 -0.932641
-0.502495 -2.277333 0.067556
-0.537557 -1.934936 0.115986
-0.318435 -2.331509 -0.643674
-0.476277 -2.158218 -0.466222
-0.593156 -1.875839 0.175887
-0.412043 -2.088167 -0.164869
-0.463514 -2.096765 0.053606
-0.354354 -2.024264 -0.177536
-0.426868 -2.355838 -0.735621
-0.408026 -1.664628 -0.337408
-0.636505 -1.506040 -0.903689
-0.467753 -1.526971 -0.733683
-0.196817 -1.865102 -0.097796
-0.626567 -1.516150 -0.330085
-0.519636 -1.500980 -0.852033
-0.353342 -2.178092 -0.676666
-0.431537 -1.656609 -0.453161
-0.543579 -1.566994 -0.856848
-0.341415 -1.804020 0.137664
-0.632707 -2.008944 0.084253
-0.545911 -2.082701 -0.338142
-0.454927 -1.532233 -0.874693
-0.595978 -1.669734 0.159607
-0.536216 -1.406879 -0.341976
-0.334305 -2.334642 -0.606021
-0.382746 -2.156572 0.106678
-0.555057 -2.346473 -0.198230
-0.572248 -1.922183 0.235749
-0.657535 -1.861487 0.303365
-0.492399 -2.314800 -0.029513
-0.460213 -2.289309 -0.062400
-0.577473 -1.433634 -0.992562
-0.602853 -1.659437 0.104735
-0.609843 -1.892702 0.244884
-0.441381 -1.515069 -0.593216
-0.650850 -1.561746 -0.354964
-0.198126 -1.913638 -0.138827
-0.383460 -2.320730 -0.729649
-0.393481 -1.961192 -0.207120
-0.473634 -1.629774 -0.404863
-0.456159 -2.370808 -0.632342
-0.527303 -1.597399 -0.064317
-0.485395 -2.054194 -0.251851
-0.439819 -1.489012 -0.160723
-0.664183 -2.027394 0.198778
-0.625202 -1.501404 -0.972568
-0.483113 -1.467475 -0.885090
-0.484646 -2.297919 -0.663695
-0.737007 -1.854908 0.230504
-0.526122 -2.214727 -0.020506
-0.540119 -1.640789 0.031511
-0.535996 -1.815018 0.056298
-0.420901 -2.295242 -0.173605
-0.529227 -1.628314 -0.623393
-0.577221 -2.325299 -0.263639
-0.591891 -1.631042 -0.626974
-0.448561 -2.325002 -0.783782
-0.521057 -1.621345 -0.612703
-0.285203 -1.782854 -0.115511
-0.409088 -2.166345 -0.220732
-0.635761 -1.949208 0.281529
-0.428528 -2.177456 -0.628703
-0.444057 -1.560259 -0.251001
-0.371581 -1.934343 0.097302
-0.548280 -2.449870 -0.758782
-0.460899 -1.597139 -0.825985
-0.283698 -1.877895 0.016142
-0.421397 -2.248894 0.022620
-0.300068 -1.975376 -0.179625
-0.496798 -1.623249 -0.020751
-0.596946 -1.737629 0.146217
-0.638810 -1.604993 -0.035569
-0.572891 -1.516026 -0.982049
-0.325914 -1.850646 -0.045443
-0.477015 -1.963070 0.220249
-0.324433 -1.729778 -0.204751
-0.492865 -2.192340 0.131888
-0.505069 -1.513042 -0.851572
-0.305954 -2.068300 -0.134073
-0.486501 -1.548123 -0.243489
-0.456961 -1.523443 -0.077992
-0.569186 -1.957771 0.153080
-0.535247 -1.612726 -0.477491
-0.505557 -1.629798 -0.566138
-0.600994 -2.145680 -0.374352
-0.728594 -1.463297 -0.927317
-0.419391 -2.183252 -0.395362
-0.513829 -1.499320 -0.181116
-0.440066 -1.504216 -0.871543
-0.444823 -1.698695 -0.314462
-0.435749 -2.026517 -0.427204
-0.520957 -1.764300 0.159131
-0.521543 -2.231566 -0.195460
-0.429496 -1.517305 -0.887188
-0.518689 -1.511059 -0.604921
-0.442861 -1.488628 -0.718000
-0.509104 -2.206410 0.094553
-0.477618 -2.162780 -0.487084
-0.434684 -2.016362 -0.227272
-0.473240 -2.021535 -0.231933
-0.520002 -1.654978 -0.486128
-0.458304 -1.536848 -0.935495
-0.349315 -1.599928 -0.957047
-0.517332 -2.285029 -0.086641
-0.486889 -2.238902 -0.425173
-0.663681 -1.900475 0.233839
-0.301088 -1.837112 -0.293433
-0.435334 -1.807446 -0.017790
-0.311309 -1.742155 -0.161616
-0.496044 -1.475236 -0.315767
-0.389410 -1.660645 -0.240104
-0.614106 -2.142766 -0.424852
-0.609984 -1.557267 0.005299
-0.276436 -1.836996 0.092843
-0.762198 -1.862024 0.312786
-0.523676 -2.097480 -0.238544
-0.483437 -1.540323 -0.862842
-0.463710 -2.211715 -0.044464
-0.558476 -1.663613 -0.156093
-0.537559 -1.825069 0.101182
-0.488055 -1.826977 0.178041
-0.490935 -2.047056 -0.351636
-0.436664 -2.320970 -0.688565
-0.577703 -1.715568 0.039677
-0.633792 -1.944940 0.184649
-0.469131 -2.293298 -0.549067
-0.371578 -1.866949 0.047008
-0.646255 -1.573198 -0.299249
-0.275797 -1.837790 0.081469
-0.426314 -2.362994 -0.681903
-0.470475 -1.559248 -0.387179
-0.287788 -1.942807 -0.020793
-0.293220 -1.718098 -0.156709
-0.404270 -2.204601 -0.669481
-0.433523 -1.730283 -0.314715
-0.466165 -1.650220 -0.462108
-0.436807 -1.560224 -0.974550
-0.274825 -2.359591 -0.596266
-0.459689 -2.174443 -0.448666
-0.506626 -2.211555 0.081753
-0.475399 -2.182278 0.122130
-0.550590 -2.071673 0.126498
-0.643267 -2.122626 0.199527
-0.408261 -2.281526 -0.011987
-0.561706 -1.444994 -0.972972
-0.450007 -1.504107 -0.949229
-0.493360 -2.264510 0.006701
-0.377307 -1.894906 0.095519
-0.555871 -2.067700 -0.267636
-0.646044 -1.866466 0.235644
-0.506870 -1.514094 -0.917148
-0.433354 -1.500650 -0.887738
-0.332604 -1.797202 -0.267993
-0.248664 -1.902720 -0.076914
-0.461515 -1.479843 -0.802126
-0.500251 -1.434702 -0.260440
-0.336264 -2.266408 -0.650414
-0.381426 -1.637633 -0.235834
-0.515644 -2.183053 -0.504782
-0.374463 -2.266660 -0.597288
-0.481698 -2.116278 -0.185816
-0.498806 -1.557169 -0.192862
-0.687716 -1.816406 0.186942
-0.616874 -1.867125 0.178405
-0.421146 -1.851559 0.135597
-0.420193 -2.286833 -0.144127
-0.495997 -1.708904 0.052730
-0.500916 -2.138503 0.036862
-0.507889 -1.550212 -0.215237
-0.561684 -2.025854 -0.341431
-0.636424 -1.608499 -0.375344
-0.529371 -1.595959 -0.459862
-0.603252 -1.752853 0.051137
-0.593489 -1.971997 0.103088
-0.672959 -1.839828 0.158443
-0.509158 -1.593232 -0.360392
-0.288531 -1.889127 -0.101289
-0.513340 -2.153169 -0.228126
-0.440054 -2.257369 -0.038980
-0.455221 -2.341007 -0.631395
-0.444620 -2.261824 -0.104829
-0.685551 -1.940662 0.243653
-0.397639 -1.951569 0.139849
-0.663042 -1.895996 0.138619
-0.382834 -1.660584 -0.428847
-0.502848 -2.036543 0.214844
-0.517757 -2.053897 0.220388
-0.584688 -2.214294 -0.396568
-0.393711 -1.568296 -0.750546
-0.664805 -1.586578 -0.398054
-0.339454 -1.773763 -0.034044
-0.319354 -2.334137 -0.747085
-0.538190 -1.494281 -0.247904
-0.516001 -1.640390 -0.466434
-0.397351 -2.292452 -0.082856
-0.519294 -1.609585 -0.557367
-0.694102 -1.896260 0.190073
-0.426431 -1.836228 0.161947
-0.584192 -1.837990 0.158456
-0.410086 -2.320308 -0.460088
-0.582977 -2.291888 -0.202137
-0.341062 -2.055083 -0.136888
-0.508607 -1.786533 -0.232679
-0.435001 -1.636905 -0.548586
-0.535600 -1.482729 -0.892918
-0.454477 -2.331075 -0.182590
-0.609238 -1.536880 -0.299989
-0.425455 -2.148515 0.160729
-0.398394 -1.859246 0.062750
-0.499136 -2.299428 -0.116744
-0.583085 -1.603197 -0.150458
-0.563914 -1.924664 0.159856
-0.527676 -2.063686 -0.255349
-0.401655 -1.530837 -0.899733
-0.592753 -2.105310 -0.355173
-0.303433 -1.729247 -0.135454
-0.523442 -1.553969 -0.295330
-0.366305 -2.011346 -0.121928
-0.746320 -1.514811 -0.340089
-0.668188 -1.476198 -0.940843
-0.751444 -1.899066 0.178781
-0.499486 -1.555072 -0.142844
-0.534413 -1.621577 -0.589641
-0.575257 -1.713891 0.167913
-0.331541 -2.243659 -0.544166
-0.323060 -1.786760 -0.306761
-0.556470 -2.105399 -0.368275
-0.368726 -2.053188 -0.174860
-0.573477 -2.001614 -0.223671
-0.362219 -1.716134 -0.198007
-0.435017 -1.626196 -0.698677
-0.583487 -2.198985 -0.162208
-0.657928 -1.599622 -0.462336
-0.466892 -2.322736 -0.091485
-0.522642 -1.732027 0.053410
-0.387303 -2.329292 -0.675980
-0.616164 -1.898269 0.137134
-0.477644 -1.588732 -0.163269
-0.373841 -2.323087 -0.684046
-0.476219 -1.569930 -0.167131
-0.493478 -1.466895 -0.222500
-0.260348 -1.803329 -0.106782
-0.623638 -2.081298 0.193690
-0.451465 -1.518460 -0.971842
-0.479708 -1.622594 0.028851
-0.506954 -1.623792 -0.603857
-0.591359 -1.576040 -0.313417
-0.566677 -1.646705 0.124174
-0.482431 -1.572154 -0.654166
-0.472924 -2.300236 -0.166194
-0.399309 -2.193970 0.043870
-0.504643 -1.583635 0.184388
-0.276004 -1.958577 -0.061873
-0.440301 -2.192974 -0.553811
-0.490052 -2.263271 -0.711162
-0.549269 -2.221322 -0.161008
-0.558546 -2.247622 -0.443696
-0.468631 -2.333085 0.015418
-0.517074 -2.145122 0.026534
-0.395742 -2.123918 -0.260265
-0.493336 -2.196111 -0.038935
-0.287013 -1.840447 0.098449
-0.418357 -1.614791 -0.875739
-0.398396 -1.825046 -0.140866
-0.527765 -1.481927 -1.033689
-0.534364 -1.571009 -0.314655
-0.367054 -2.316159 -0.651983
-0.613092 -1.607885 0.116806
-0.363667 -1.750205 -0.468738
-0.469891 -2.379960 -0.683305
-0.557288 -1.623699 -0.522479
-0.540908 -1.557408 -0.284969
-0.577706 -1.625977 0.086819
-0.563339 -1.515705 -0.339295
-0.397326 -2.196730 0.001256
-0.459987 -1.740650 -0.487108
-0.653403 -1.775372 0.156521
-0.580367 -2.252852 -0.367568
-0.514963 -1.679029 -0.410141
-0.461344 -1.651987 -0.578524
-0.502357 -2.402137 -0.776779
-0.624567 -1.446246 -0.984668
-0.563045 -1.660143 0.156692
-0.585004 -1.654865 0.145291
-0.461258 -1.531208 -0.260949
-0.544573 -1.615602 0.195527
-0.562747 -2.294838 -0.725325
-0.416381 -1.785482 0.037038
-0.498386 -1.767996 -0.662623
-0.394810 -2.268588 -0.030981
-0.485824 -2.384749 -0.642203
-0.569835 -1.429112 -0.929989
-0.508116 -1.575644 -0.820218
-0.384105 -2.311233 -0.525664
-0.491771 -2.241413 -0.118044
-0.654348 -1.834806 0.093474
-0.308794 -2.004798 -0.206294
-0.599869 -2.267110 -0.174704
-0.739987 -2.113653 -0.483894
-0.474344 -1.607802 -0.346809
-0.542710 -1.534190 -0.392127
-0.576800 -1.860284 0.171723
-0.447366 -1.658520 -0.438087
-0.430621 -2.330027 -0.658554
-0.432579 -1.628870 -0.529338
-0.421073 -2.243833 0.030634
-0.509644 -1.607651 -0.049336
-0.408234 -2.302630 -0.106783
-0.343088 -2.369238 -0.677288
-0.498908 -2.083466 -0.202627
-0.477142 -1.527698 -0.775976
-0.406973 -1.723730 -0.211104
-0.400310 -1.925216 -0.104521
-0.500019 -2.208037 0.024914
-0.633424 -1.382535 -0.872427
-0.541080 -2.090323 0.172907
-0.514091 -1.671881 0.066482
-0.584688 -1.873945 0.087863
-0.554577 -1.848014 0.054850
-0.583194 -2.368328 -0.611262
-0.425569 -1.550578 -0.828742
-0.531539 -2.065060 0.121493
-0.496962 -1.577473 -0.723257
-0.658858 -1.869822 0.187350
-0.670572 -1.760585 0.241756
-0.399590 -1.835033 0.114700
-0.346403 -1.893669 0.013213
-0.518125 -1.487888 -0.962957
-0.660457 -2.210407 -0.354071
-0.477962 -1.574136 -0.938157
-0.367516 -2.270679 -0.748577
-0.537275 -1.619122 -0.531562
-0.407093 -2.242134 -0.083123
-0.488270 -1.724680 -0.473082
-0.588591 -2.345755 -0.728128
-0.363937 -2.284952 -0.030711
-0.526493 -1.695338 -0.018209
-0.650178 -1.725864 0.256016
-0.444401 -2.275417 0.062406
-0.610484 -1.891323 0.161900
-0.492441 -1.522377 0.111418
-0.441232 -2.365405 -0.844826
-0.671233 -1.863208 0.137170
-0.518173 -1.668460 0.114983
-0.565316 -2.251431 -0.199826
-0.484626 -1.550178 -0.005202
-0.408965 -1.692108 -0.319813
-0.583880 -2.032543 -0.315374
-0.433514 -2.230547 -0.011224
-0.493193 -1.602014 -0.241535
-0.639805 -1.911114 0.243999
-0.317713 -2.191008 -0.523301
-0.717081 -1.844781 0.152886
-0.452781 -1.706781 -0.397903
-0.392726 -1.872554 0.029244
-0.551557 -1.644988 0.111618
-0.392101 -1.815974 -0.323280
-0.551097 -2.104169 -0.330293
-0.495269 -2.129555 0.171748
-0.567488 -2.253789 -0.183425
-0.573423 -1.907984 0.122659
-0.470272 -2.316588 -0.568489
-0.486490 -1.584305 -0.765588
-0.607284 -2.118420 -0.368512
-0.444507 -1.692868 -0.346750
-0.274351 -1.818449 -0.022579
-0.392328 -2.173409 0.050039
-0.346066 -2.280201 -0.094616
-0.376643 -1.787689 -0.313843
-0.327682 -1.572909 -0.786680
-0.210945 -1.935946 -0.093603
-0.609341 -1.572068 -0.113358
-0.605204 -2.282465 -0.216990
-0.676875 -1.796092 0.229875
-0.344972 -2.152967 -0.694498
-0.402917 -2.286129 -0.530814
-0.528563 -2.089845 0.107979
-0.528993 -2.279500 0.059390
-0.489731 -1.646898 0.038688
-0.409251 -2.292105 -0.446915
-0.485332 -1.524534 -0.105071
-0.519427 -1.567195 -0.993347
-0.640226 -1.377659 -0.897858
-0.491449 -1.541762 -0.093538
-0.404546 -1.709102 -0.310059
-0.500190 -1.628927 -0.012853
-0.211471 -1.932178 -0.095838
-0.430996 -1.955926 -0.232315
-0.516671 -2.214510 0.032609
-0.490666 -1.581592 -0.048723
-0.411127 -2.025702 0.280888
-0.627347 -2.496399 -0.682685
-0.534731 -1.480155 -0.234497
-0.798309 -1.968851 0.183208
-0.418504 -2.113178 -0.399182
-0.487682 -2.195036 -0.079362
-0.601081 -2.067514 0.263428
-0.618353 -2.331201 -0.183997
-0.397208 -2.022580 -0.203030
-0.516249 -2.354797 -0.232867
-0.432458 -1.739409 -0.224057
-0.562311 -1.425971 -0.941952
-0.457429 -1.711881 -0.239778
-0.493769 -2.117482 -0.240690
-0.594757 -1.837755 0.195772
-0.647806 -2.132856 -0.409090
-0.529867 -1.905587 0.091814
-0.513668 -2.256409 -0.024409
-0.467112 -1.542136 -0.836394
-0.472562 -2.224072 -0.548743
-0.516727 -2.185065 0.001411
-0.613626 -1.563071 -0.285284
-0.417024 -1.589843 -0.076674
-0.352776 -2.116548 -0.204749
-0.422583 -2.258409 -0.123761
-0.533312 -1.729255 0.179178
-0.501881 -1.522787 -0.172357
-0.383890 -2.286656 -0.579156
-0.342288 -2.325072 -0.612429
-0.482741 -1.711347 -0.448687
-0.577880 -1.844044 0.129992
-0.473409 -1.559524 -0.561234
-0.585008 -2.199986 -0.312973
-0.618482 -1.575650 -0.347324
-0.528479 -2.247746 -0.261546
-0.495185 -2.416173 -0.707043
-0.472413 -1.906979 0.050355
-0.351077 -1.866089 -0.029869
-0.403229 -2.383847 -0.602777
-0.341938 -1.993968 -0.051408
-0.323359 -2.079724 -0.154027
-0.334729 -1.822800 -0.250156
-0.424889 -2.153320 -0.466647
-0.619676 -2.374427 -0.726148
-0.541433 -1.849668 0.153909
-0.422718 -1.817721 -0.037568
-0.446452 -1.491199 -0.695936
-0.422491 -2.234395 0.066524
-0.583495 -1.599954 0.064555
-0.548858 -1.589549 -0.882439
-0.512840 -1.714942 -0.401845
-0.395015 -2.407724 -0.686984
-0.363871 -1.704681 -0.292955
-0.530407 -2.228924 -0.292874
-0.439556 -2.410931 -0.631562
-0.517907 -1.550020 -0.139278
-0.504602 -2.084473 0.012100
-0.345287 -1.567120 -0.800898
-0.306869 -1.777054 0.091239
-0.341412 -1.854535 0.029275
-0.338554 -1.986020 -0.242693
-0.572096 -1.698596 0.077496
-0.691388 -1.934190 0.130736
-0.591766 -2.202330 -0.440055
-0.312655 -1.925308 0.147341
-0.516817 -2.295691 -0.222572
-0.298167 -1.764513 -0.242313
-0.418710 -1.657617 -0.269442
-0.726396 -1.863900 0.173739
-0.570678 -1.487231 -0.384873
-0.467791 -1.520585 -0.566283
-0.521505 -2.261164 -0.196628
-0.472735 -2.053806 -0.270732
-0.556414 -2.314508 -0.234183
-0.518899 -1.899092 0.136503
-0.517856 -1.571203 0.004770
-0.313424 -1.675935 -0.293694
-0.498777 -1.464368 -0.899383
-0.625947 -2.384513 -0.678702
-0.449293 -2.094200 -0.249515
-0.522071 -1.594858 -0.928129
-0.508806 -1.504047 -0.869198
-0.451990 -1.653368 -0.391531
-0.370486 -2.302556 -0.610193
-0.430912 -2.314212 -0.684441
-0.405743 -1.676592 -0.285996
-0.615437 -1.514515 -0.415921
-0.464840 -1.700065 0.098276
-0.545702 -1.631545 0.092652
-0.654533 -1.669340 0.191230
-0.324575 -2.120889 -0.115393
-0.805510 -1.858630 0.261161
-0.528001 -2.143314 -0.476689
-0.261787 -1.928793 -0.040430
-0.539095 -1.459352 -0.856025
-0.463008 -1.684862 -0.758925
-0.454214 -1.599374 -0.260623
-0.580379 -1.592041 -0.447965
-0.635795 -1.474147 -0.263040
-0.366126 -1.917896 -0.083613
-0.516718 -1.958920 0.302494
-0.401618 -2.250556 -0.472742
-0.478451 -2.294726 -0.460638
-0.413248 -1.548708 -0.756351
-0.433904 -2.210093 -0.501296
-0.295296 -1.935947 -0.059725
-0.523622 -2.302984 -0.005002
-0.560085 -1.592876 0.020100
-0.378308 -1.734803 -0.294930
-0.418678 -1.593044 -0.164507
-0.450183 -2.241516 -0.519999
-0.529873 -1.619478 -0.060147
-0.445792 -1.763216 -0.330941
-0.464178 -1.642013 -0.633560
-0.466684 -2.155529 -0.298762
-0.474065 -1.515270 -0.938716
-0.517169 -1.566053 -0.927973
-0.563522 -2.267896 -0.167173
-0.319475 -2.243870 -0.637172
-0.493084 -2.303683 -0.472420
-0.436699 -2.282239 -0.703197
-0.419650 -1.565152 -0.664287
-0.634526 -2.103935 -0.409933
-0.509796 -2.100608 0.057351
-0.705563 -1.971995 0.225373
-0.601462 -2.322813 -0.669743
-0.527060 -1.643786 -0.148056
-0.460680 -1.584952 -0.941596
-0.338932 -1.878086 0.012115
-0.570177 -1.444063 -0.933150
-0.440803 -2.134289 -0.248877
-0.380009 -1.692003 -0.504258
-0.501653 -1.581853 -0.618363
-0.495766 -1.547348 -0.178104
-0.552026 -2.123008 -0.372851
-0.060425 -1.865992 -0.041428
-0.702294 -1.528056 -0.912004
-0.579904 -1.469671 -0.370361
-0.409269 -1.522451 -0.971465
-0.633575 -1.448992 -0.893457
-0.548668 -1.509136 -0.878816
-0.617770 -1.641016 0.140650
-0.358654 -2.029629 -0.211863
-0.549604 -1.543268 -0.945116
-0.418732 -1.573653 -0.989501
-0.555120 -1.908077 0.200980
-0.495241 -2.134446 0.064957
-0.539228 -2.227679 -0.352448
-0.459709 -1.425164 -0.924359
-0.525233 -1.630397 -0.526339
-0.510506 -1.666729 -0.020558
-0.462171 -2.071913 0.214893
-0.620954 -1.486494 -0.258238
-0.325401 -2.112107 -0.169349
-0.512885 -2.320179 -0.676006
-0.676569 -1.422128 -0.881477
-0.583970 -1.618862 -0.279230
-0.688538 -1.926434 0.139665
-0.402563 -2.391060 -0.686459
-0.745095 -1.841994 0.151019
-0.651937 -1.993588 0.228591
-0.432621 -2.240273 -0.510504
-0.632099 -2.026781 0.161980
-0.407515 -1.631681 -0.028941
-0.343512 -2.331065 -0.778798
-0.272474 -1.883172 -0.033553
-0.422468 -2.251390 -0.638534
-0.459322 -2.357174 -0.656206
-0.413835 -1.574486 0.117103
-0.553394 -1.466521 -0.934279
-0.516797 -2.157863 -0.419254
-0.475599 -1.526863 -0.165839
-0.296086 -2.245057 -0.593584
-0.539329 -2.166674 -0.423349
-0.343629 -2.329050 -0.696854
-0.626757 -1.466562 -0.375579
-0.659071 -1.554551 -0.399209
-0.395622 -1.601708 -0.835331
-0.542060 -1.429553 -0.188569
-0.486716 -1.690844 -0.421885
-0.496249 -1.501494 -0.539795
-0.713122 -1.488510 -0.925728
-0.434217 -2.026021 -0.304502
-0.686972 -1.983531 0.262169
-0.577128 -1.951758 0.214052
-0.590499 -1.494247 -0.334793
-0.455919 -2.174673 -0.034834
-0.563608 -1.600313 -0.534116
-0.472401 -1.595329 -0.678307
-0.356779 -1.876450 0.174731
-0.667437 -1.616075 0.057259
-0.560457 -1.645708 -0.265798
-0.499713 -2.048715 -0.192597
-0.536589 -2.315876 -0.175621
-0.599348 -1.423718 -0.969516
-0.498837 -2.238307 0.038509
-0.251137 -1.709856 -0.132523
-0.606522 -1.792774 0.170836
-0.487065 -2.291197 -0.429650
-0.542443 -2.365635 -0.734942
-0.463281 -1.543039 -0.053236
-0.400970 -1.546819 -0.652670
-0.548606 -1.555213 -0.247215
-0.256888 -1.826635 -0.059676
-0.423430 -2.146463 -0.406461
-0.478368 -1.453298 -0.843369
-0.529777 -1.617136 -0.026132
-0.627277 -1.500915 -0.934067
-0.526025 -1.451017 -0.899926
-0.552468 -1.589848 -0.082488
-0.547402 -2.344113 -0.161907
-0.437201 -1.592815 -0.711263
-0.364618 -1.745764 -0.349002
-0.405784 -2.062834 -0.235295
-0.556099 -1.599585 -0.199617
-0.453858 -2.250024 -0.630624
-0.485152 -1.606807 -0.770381
-0.462774 -2.361557 -0.741386
-0.544457 -1.478851 -0.929630
-0.386530 -1.627426 -0.810108
-0.508164 -2.364893 -0.736710
-0.560971 -2.308298 -0.216948
-0.562750 -2.310294 -0.191545
-0.451697 -2.061383 -0.234238
-0.404403 -1.617870 -0.667858
-0.594799 -2.032746 0.226136
-0.368708 -1.994877 -0.138905
-0.593894 -1.660220 -0.625031
-0.574804 -1.702084 0.110535
-0.522357 -1.821457 0.102198
-0.510487 -1.860776 0.149167
-0.301526 -1.794443 -0.094810
-0.622812 -1.682445 0.101023
-0.443448 -1.873656 0.105782
-0.473539 -2.217849 -0.090407
-0.508825 -1.695160 0.097757
-0.488286 -1.488206 -0.931898
-0.512004 -2.133215 -0.302024
-0.637735 -1.938706 0.198168
-0.584942 -1.580283 -0.490495
-0.502189 -2.082178 -0.436528
-0.452555 -1.791225 0.117182
-0.684560 -1.929276 0.126112
-0.396048 -1.740831 -0.322163
-0.416311 -1.865164 -0.213769
-0.529402 -1.455136 -0.894180
-0.486872 -2.284929 -0.035942
-0.352277 -2.092228 -0.092314
-0.632325 -1.922788 0.249889
-0.199438 -1.944659 -0.028112
-0.627679 -1.552078 -0.371125
-0.410857 -1.711421 -0.331465
-0.540754 -1.993644 0.163841
-0.414199 -2.191983 -0.462535
-0.402740 -2.269582 0.137102
-0.422350 -1.791557 -0.183095
-0.416157 -1.599026 -0.615404
-0.370801 -1.912308 0.084168
-0.565988 -2.032857 0.267833
-0.404385 -2.168322 -0.049838
-0.297450 -1.758709 -0.147947
-0.463756 -1.914581 0.010218
-0.383438 -1.615930 -0.317580
-0.572558 -1.576549 -0.361783
-0.397387 -1.467278 -0.800416
-0.561362 -2.170051 -0.408583
-0.636799 -2.214095 -0.364458
-0.416577 -2.272279 0.027816
-0.614906 -1.944463 0.238658
-0.570118 -1.759638 0.120577
-0.308349 -2.288718 -0.561094
-0.251344 -1.894183 -0.119820
-0.354936 -2.327595 -0.124901
-0.558040 -1.712839 0.162951
-0.475568 -2.251085 -0.106546
-0.528509 -1.925873 0.254105
-0.342620 -1.754382 -0.198541
-0.497086 -2.310622 -0.199888
-0.432821 -2.250868 -0.544514
-0.333694 -1.812233 -0.277740
-0.799379 -1.897266 0.205066
-0.477068 -2.191501 -0.522808
-0.494969 -1.451337 -0.878388
-0.592076 -1.919744 0.240418
-0.550179 -2.221838 -0.369636
-0.571470 -2.252430 -0.105108
-0.616198 -1.801760 0.154733
-0.555686 -1.588038 -0.360668
-0.678155 -1.905556 0.237945
-0.542724 -1.599871 -0.677050
-0.400091 -1.665253 -0.405219
-0.521191 -1.758317 0.158090
-0.599329 -2.189617 -0.223688
-0.449393 -1.570385 -0.821666
-0.435346 -1.819694 -0.003995
-0.584908 -1.872357 0.199299
-0.341855 -1.962881 -0.140111
-0.422400 -2.347445 0.031529
-0.384513 -2.338322 -0.573736
-0.613727 -1.984437 0.212211
-0.546119 -2.100060 0.133104
-0.559027 -1.646529 0.042383
-0.564950 -1.954411 0.082708
-0.430529 -1.684982 -0.277064
-0.369742 -1.778214 0.054870
-0.627061 -1.640903 0.183404
-0.416391 -2.052694 -0.103883
-0.299621 -1.925158 -0.082613
-0.585736 -1.826694 0.208648
-0.397352 -1.888914 0.052555
-0.490656 -1.570413 -0.931877
-0.579522 -2.122024 0.251038
-0.372328 -1.951702 -0.230392
-0.502072 -1.580589 -0.191590
-0.507071 -1.569130 -0.323614
-0.561949 -1.818789 0.075365
-0.363534 -1.709181 -0.345648
-0.456991 -1.854876 0.162726
-0.408417 -1.700770 -0.372364
-0.463653 -1.493605 -0.197733
-0.571448 -1.449264 -0.964190
-0.488884 -2.063861 0.152910
-0.482966 -2.202350 -0.462950
-0.327991 -2.344554 -0.619987
-0.535871 -1.608671 -0.512166
-0.404780 -1.480070 -0.933513
-0.521075 -1.851803 0.173110
-0.514603 -1.836980 0.132677
-0.608891 -2.062828 -0.394470
-0.695571 -1.466743 -0.899918
-0.422782 -2.287344 -0.631873
-0.392645 -2.156479 0.036326
-0.394126 -1.735448 -0.221556
-0.338133 -1.848848 -0.067677
-0.258562 -1.906949 0.015301
-0.323180 -2.061157 -0.197498
-0.331848 -1.713316 -0.201578
-0.292211 -1.834209 -0.108733
-0.257884 -1.800000 -0.260053
-0.543367 -1.541135 -0.063671
-0.583424 -1.974360 0.162680
-0.340055 -1.650011 -0.737295
-0.405949 -2.043986 -0.114550
-0.551481 -1.877173 0.082745
-0.558921 -1.711155 -0.418305
-0.467346 -2.003576 -0.232018
-0.489166 -2.050180 -0.279363
-0.430605 -1.551102 -0.902465
-0.516716 -2.226683 -0.045550
-0.518538 -1.532270 -0.047614
-0.261017 -1.996441 -0.128196
-0.518457 -1.450643 -0.259442
-0.532324 -2.140547 -0.278432
-0.427351 -2.212852 -0.101001
-0.302177 -2.214820 -0.657497
-0.517312 -1.911598 0.084003
-0.227349 -1.864966 -0.051827
-0.491577 -1.583977 0.128999
-0.487632 -2.241403 0.034105
-0.288181 -1.893165 -0.022984
-0.459601 -1.582321 -0.764005
-0.472322 -2.089198 0.178533
-0.674133 -1.937286 0.247884
-0.550444 -1.542291 -0.321687
-0.335489 -2.209136 -0.612156
-0.557259 -2.046751 0.053687
-0.532643 -2.303114 -0.228586
-0.507392 -2.293015 -0.075488
-0.415001 -2.316682 -0.654073
-0.440236 -2.188890 0.006122
-0.601247 -1.933084 0.242735
-0.619492 -1.683233 -0.020382
-0.547651 -2.470221 -0.651019
-0.346444 -2.038648 -0.296724
-0.489878 -1.617599 -0.712606
-0.630103 -1.885927 0.202274
-0.498874 -1.604015 -0.758914
-0.377514 -2.013942 -0.118195
-0.522887 -1.599218 -0.591604
-0.549312 -1.675883 0.074399
-0.433327 -2.042288 -0.191703
-0.561358 -2.161818 0.116407
-0.417631 -2.104887 0.218289
-0.354059 -2.282395 -0.650868
-0.435277 -1.536225 -0.834842
-0.516640 -2.171243 -0.507843
-0.573111 -2.373927 -0.089977
-0.268425 -1.708419 -0.158821
-0.443027 -2.299572 -0.662304
-0.412234 -2.299007 0.014147
-0.581240 -1.391843 -0.933507
-0.402452 -2.081745 -0.234901
-0.514372 -2.115425 -0.278170
-0.411405 -2.133721 -0.242970
-0.446322 -2.258351 -0.449449
-0.534825 -1.590602 -0.048396
-0.618948 -2.019020 0.246609
-0.547550 -1.560400 0.059458
-0.335153 -1.836687 0.006892
-0.773712 -1.419532 -0.858957
-0.638902 -1.605932 -0.228073
-0.358868 -2.050379 -0.072055
-0.529457 -2.128463 -0.242401
-0.418318 -1.753554 -0.295611
-0.569785 -1.604000 0.058373
-0.304377 -1.815499 -0.000096
-0.457226 -1.542344 -0.912464
-0.382863 -2.245279 -0.011996
-0.452595 -1.694424 -0.525852
-0.236362 -2.044286 -0.042474
-0.505645 -2.259370 -0.569895
-0.569673 -2.146370 -0.430161
-0.569196 -1.677834 -0.466960
-0.465129 -2.242897 0.152392
-0.405947 -1.713747 -0.280041
-0.544717 -1.560118 -0.254642
-0.598149 -1.561888 -0.436452
-0.631456 -1.466331 -0.266216
-0.342690 -2.263425 -0.631576
-0.600273 -2.157162 -0.456539
-0.224909 -1.960300 0.006517
-0.228031 -1.753891 -0.154667
-0.428011 -2.293123 0.059666
-0.637124 -1.464813 -0.903932
-0.435590 -2.114306 -0.174530
-0.523569 -1.674857 -0.088658
-0.554508 -1.510786 -0.428657
-0.678939 -1.915927 0.310173
-0.468660 -2.232533 0.111392
-0.322243 -1.808346 -0.202107
-0.475757 -1.646835 -0.323167
-0.482781 -1.550323 -0.770358
-0.543559 -1.555878 -0.864560
-0.609873 -1.457658 -0.303988
-0.218974 -1.906692 -0.094386
-0.539801 -2.191413 -0.407354
-0.491798 -2.431637 -0.675426
-0.579335 -2.116560 0.172000
-0.673935 -1.944818 0.185693
-0.510157 -1.643457 -0.635016
-0.424393 -1.567769 -0.724589
-0.548936 -2.135726 0.106349
-0.362218 -1.774462 0.056062
-0.382645 -2.222475 -0.606253
-0.363018 -2.323000 -0.672922
-0.333425 -2.335842 -0.645181
-0.152391 -1.807571 -0.030981
-0.600934 -1.536792 -0.330326
-0.281621 -1.677336 -0.246889
-0.454178 -2.026053 -0.158221
-0.361800 -2.266780 -0.580141
-0.457204 -2.153554 -0.389643
-0.467870 -1.517053 -0.873540
-0.371301 -1.546944 -0.820279
-0.425996 -2.245273 -0.559193
-0.435904 -1.568740 -0.057294
-0.429783 -1.541983 -0.599675
-0.552965 -1.633368 -0.155123
-0.535763 -1.871237 0.119728
-0.502444 -2.001868 0.192760
-0.408267 -1.497564 -0.083143
-0.231083 -1.911305 -0.167939
-0.624339 -2.120129 -0.363518
-0.560394 -2.223073 -0.546363
-0.722913 -1.855639 0.208801
-0.268764 -2.267177 -0.611733
-0.565222 -1.502437 -0.389253
-0.397915 -2.194157 -0.476875
-0.532933 -2.055094 -0.221131
-0.402788 -1.868272 0.163424
-0.518393 -2.245887 -0.446763
-0.443128 -1.530917 -0.914365
-0.376053 -2.023868 -0.180759
-0.483941 -1.647676 -0.540162
-0.426920 -2.185953 0.117341
-0.502914 -1.625631 -0.164402
-0.753633 -1.841891 0.187940
-0.445276 -2.196399 -0.517373
-0.394811 -2.105641 -0.234127
-0.542020 -1.864590 0.208010
-0.452091 -1.583606 -0.007683
-0.360817 -1.602535 -0.854251
-0.539592 -2.175683 0.078724
-0.473287 -2.144601 0.072976
-0.322398 -1.477082 -0.833493
-0.290968 -1.714294 -0.137973
-0.589025 -2.103210 -0.281875
-0.506604 -2.295456 -0.198559
-0.543824 -2.137331 -0.340221
-0.278352 -1.879822 0.057961
-0.465778 -2.072819 0.113589
-0.237447 -2.017040 -0.170614
-0.501670 -2.175777 -0.483980
-0.482134 -2.366883 -0.684637
-0.595101 -1.602153 -0.427074
-0.567225 -2.030798 0.125741
-0.505400 -1.617776 -0.430202
-0.250284 -1.778841 -0.207402
-0.382831 -2.363026 -0.037801
-0.317999 -1.769839 -0.171081
-0.611856 -1.568598 0.007600
-0.685956 -1.911155 0.123123
-0.573091 -1.903152 0.117332
-0.504795 -1.500801 -0.943871
-0.510410 -1.888739 0.143904
-0.393799 -1.669381 -0.337821
-0.458931 -1.526275 -0.952137
-0.597327 -1.759347 0.175086
-0.382843 -2.247341 -0.032085
-0.608576 -1.691144 0.147057
-0.476020 -2.407692 0.047220
-0.412833 -2.292440 -0.029513
-0.541718 -2.237045 -0.359974
-0.505078 -1.476999 -0.038454
-0.424746 -1.875613 0.111176
-0.518932 -1.539609 -0.370813
-0.438259 -2.222979 -0.470158
-0.468123 -1.550012 -0.829278
-0.525290 -1.584983 -0.086645
-0.486837 -2.097288 -0.264860
-0.629201 -2.042206 0.193289
-0.649672 -1.902904 0.217120
-0.507838 -2.466534 -0.709856
-0.481909 -1.544495 -0.706808
-0.456113 -1.540266 -0.847766
-0.457802 -1.880241 0.061039
-0.462778 -2.332812 -0.697287
-0.578135 -1.835574 0.063945
-0.402453 -1.578819 -0.161045
-0.245289 -1.748429 -0.259828
-0.371562 -1.727733 -0.380494
-0.576315 -2.065185 0.055842
-0.423618 -1.643584 -0.056077
-0.644555 -1.951501 0.166813
-0.418095 -2.098596 -0.188323
-0.576161 -2.043123 0.260782
-0.508577 -2.158831 -0.467641
-0.426663 -1.556966 -0.883741
-0.486007 -1.544479 -0.197360
-0.553077 -1.623413 0.048009
-0.505437 -1.578486 -0.638571
-0.506430 -1.801198 0.110633
-0.647293 -1.446606 -0.894147
-0.470089 -2.272680 -0.549113
-0.647603 -1.912681 0.158198
-0.520161 -2.073236 -0.373606
-0.572627 -1.723359 0.134656
-0.483715 -2.227122 -0.037944
-0.401830 -2.204450 -0.080949
-0.558514 -1.393722 -0.932602
-0.611940 -1.974539 0.233819
-0.403258 -2.005075 -0.234074
-0.548535 -1.683102 0.117845
-0.422070 -2.098183 -0.238976
-0.678839 -1.781947 0.065205
